<svg width="58" height="28" viewBox="0 0 58 28" fill="none" xmlns="http://www.w3.org/2000/svg">
<path d="M27.7578 19.5293C27.7461 19.5762 27.6641 19.7754 27.5117 20.127C27.3594 20.4785 27.1016 20.9121 26.7383 21.4277C26.3867 21.9434 25.918 22.5117 25.332 23.1328C24.7461 23.7539 24.0078 24.3633 23.1172 24.9609C22.2266 25.5469 21.1719 26.0859 19.9531 26.5781C18.7344 27.0586 17.3223 27.4277 15.7168 27.6855C14.6387 27.8613 13.5078 27.9492 12.3242 27.9492C11.3398 27.9492 10.3496 27.8789 9.35352 27.7383C8.36914 27.6094 7.41992 27.3984 6.50586 27.1055C5.60352 26.8242 4.75977 26.4609 3.97461 26.0156C3.18945 25.5703 2.50391 25.043 1.91797 24.4336C1.34375 23.8242 0.886719 23.127 0.546875 22.3418C0.21875 21.5449 0.0546875 20.6602 0.0546875 19.6875C0.0546875 17.9648 0.529297 16.4824 1.47852 15.2402C2.43945 13.998 3.85742 13.0312 5.73242 12.3398C5.06445 11.7188 4.56641 11.0332 4.23828 10.2832C3.91016 9.5332 3.74609 8.75391 3.74609 7.94531C3.74609 6.9375 3.97461 6.00586 4.43164 5.15039C4.90039 4.29492 5.54492 3.55664 6.36523 2.93555C7.18555 2.31445 8.1582 1.83398 9.2832 1.49414C10.4199 1.14258 11.6621 0.966797 13.0098 0.966797C14.3691 0.966797 15.5527 1.0957 16.5605 1.35352C17.5801 1.61133 18.4473 1.93359 19.1621 2.32031C19.8887 2.70703 20.4805 3.12891 20.9375 3.58594C21.4062 4.04297 21.7754 4.4707 22.0449 4.86914C22.3145 5.26758 22.502 5.60742 22.6074 5.88867C22.7129 6.1582 22.7715 6.31055 22.7832 6.3457C22.7949 6.39258 22.8008 6.45703 22.8008 6.53906C22.8008 6.70312 22.7363 6.85547 22.6074 6.99609C22.4902 7.125 22.332 7.18945 22.1328 7.18945C21.9922 7.18945 21.8633 7.14844 21.7461 7.06641C21.6406 6.97266 21.5645 6.84961 21.5176 6.69727C21.5176 6.67383 21.4707 6.55078 21.377 6.32812C21.2832 6.09375 21.1191 5.8125 20.8848 5.48438C20.6504 5.15625 20.3281 4.81055 19.918 4.44727C19.5195 4.07227 19.0039 3.72656 18.3711 3.41016C17.7383 3.08203 16.9824 2.8125 16.1035 2.60156C15.2246 2.39062 14.1934 2.28516 13.0098 2.28516C11.6504 2.28516 10.4668 2.45508 9.45898 2.79492C8.46289 3.13477 7.63672 3.58008 6.98047 4.13086C6.33594 4.66992 5.85547 5.27344 5.53906 5.94141C5.22266 6.60938 5.06445 7.26562 5.06445 7.91016C5.06445 8.67187 5.25195 9.39844 5.62695 10.0898C6.00195 10.7812 6.54102 11.373 7.24414 11.8652C7.87695 11.7012 8.49805 11.5723 9.10742 11.4785C9.7168 11.3848 10.291 11.3145 10.8301 11.2676C11.3691 11.209 11.8555 11.1738 12.2891 11.1621C12.7344 11.1387 13.0977 11.127 13.3789 11.127C13.8945 11.127 14.3691 11.168 14.8027 11.25C15.2363 11.3203 15.6055 11.4316 15.9102 11.584C16.2266 11.7246 16.4727 11.9121 16.6484 12.1465C16.8242 12.3691 16.9121 12.627 16.9121 12.9199C16.9121 13.2129 16.8242 13.4766 16.6484 13.7109C16.4727 13.9453 16.2266 14.1445 15.9102 14.3086C15.6055 14.4727 15.2363 14.6016 14.8027 14.6953C14.3691 14.7773 13.8945 14.8184 13.3789 14.8184C12.8164 14.8184 12.248 14.7832 11.6738 14.7129C11.0996 14.6426 10.5371 14.543 9.98633 14.4141C9.44727 14.2852 8.92578 14.127 8.42188 13.9395C7.91797 13.7402 7.46094 13.5176 7.05078 13.2715C5.1875 13.834 3.77539 14.6484 2.81445 15.7148C1.85352 16.7695 1.37305 18.0762 1.37305 19.6348C1.37305 20.4785 1.51953 21.2402 1.8125 21.9199C2.11719 22.5879 2.5332 23.1797 3.06055 23.6953C3.58789 24.2109 4.20312 24.6562 4.90625 25.0312C5.62109 25.3945 6.38281 25.6934 7.19141 25.9277C8 26.1621 8.84375 26.3379 9.72266 26.4551C10.6016 26.5605 11.4746 26.6133 12.3418 26.6133C12.9043 26.6133 13.4492 26.5957 13.9766 26.5605C14.5039 26.5137 15.0137 26.4492 15.5059 26.3672C16.9824 26.1328 18.2773 25.793 19.3906 25.3477C20.5156 24.8906 21.4824 24.3984 22.291 23.8711C23.1113 23.332 23.791 22.7871 24.3301 22.2363C24.8691 21.6738 25.2969 21.1641 25.6133 20.707C25.9414 20.2383 26.1699 19.8574 26.2988 19.5645C26.4395 19.2715 26.5098 19.1191 26.5098 19.1074C26.5566 18.9668 26.6328 18.8613 26.7383 18.791C26.8555 18.709 26.9844 18.668 27.125 18.668C27.3125 18.668 27.4707 18.7324 27.5996 18.8613C27.7285 18.9902 27.793 19.1426 27.793 19.3184C27.793 19.3652 27.7812 19.4355 27.7578 19.5293ZM15.5762 12.9375C15.5762 12.8438 15.5 12.7617 15.3477 12.6914C15.1953 12.6211 14.9961 12.5684 14.75 12.5332C14.5156 12.4863 14.2461 12.457 13.9414 12.4453C13.6367 12.4219 13.3262 12.4102 13.0098 12.4102C12.3184 12.4102 11.6621 12.4336 11.041 12.4805C10.4199 12.5156 9.71094 12.6094 8.91406 12.7617C9.52344 12.9844 10.2207 13.166 11.0059 13.3066C11.8027 13.4355 12.6055 13.5 13.4141 13.5C14.1523 13.5 14.6973 13.4414 15.0488 13.3242C15.4004 13.207 15.5762 13.0781 15.5762 12.9375ZM39.5176 22.1309C39.3887 22.4004 39.2246 22.7227 39.0254 23.0977C38.8379 23.4609 38.6211 23.8418 38.375 24.2402C38.1289 24.6387 37.8535 25.0371 37.5488 25.4355C37.2441 25.8223 36.9102 26.1738 36.5469 26.4902C36.1953 26.7949 35.8145 27.041 35.4043 27.2285C35.0059 27.4277 34.5781 27.5273 34.1211 27.5273C33.418 27.5273 32.8145 27.3105 32.3105 26.877C31.8066 26.4434 31.3789 25.875 31.0273 25.1719C30.6758 24.4688 30.3887 23.6719 30.166 22.7812C29.9551 21.8789 29.791 20.9648 29.6738 20.0391C29.5566 19.1016 29.4746 18.1934 29.4277 17.3145C29.3926 16.4355 29.375 15.6562 29.375 14.9766C29.375 13.9922 29.4043 12.9727 29.4629 11.918C29.5332 10.8633 29.6387 9.83203 29.7793 8.82422C29.9199 7.81641 30.0957 6.86133 30.3066 5.95898C30.5293 5.05664 30.7871 4.26563 31.0801 3.58594C31.3848 2.90625 31.7305 2.36719 32.1172 1.96875C32.5039 1.57031 32.9434 1.37109 33.4355 1.37109C33.8223 1.37109 34.168 1.46484 34.4727 1.65234C34.7891 1.82812 35.0527 2.12109 35.2637 2.53125C35.4746 2.94141 35.6387 3.47461 35.7559 4.13086C35.873 4.78711 35.9316 5.58984 35.9316 6.53906C35.9316 7.71094 35.8086 8.92383 35.5625 10.1777C35.3164 11.4199 34.9824 12.6738 34.5605 13.9395C34.1387 15.2051 33.6406 16.4707 33.0664 17.7363C32.4922 18.9902 31.877 20.2148 31.2207 21.4102C31.5137 22.8984 31.9062 24.0703 32.3984 24.9258C32.8906 25.7695 33.4824 26.1914 34.1738 26.1914C34.6426 26.1914 35.0938 26.0098 35.5273 25.6465C35.9609 25.2715 36.3594 24.832 36.7227 24.3281C37.0859 23.8242 37.4023 23.3145 37.6719 22.7988C37.9531 22.2715 38.1699 21.8496 38.3223 21.5332C38.3809 21.416 38.4629 21.3281 38.5684 21.2695C38.6738 21.1992 38.791 21.1641 38.9199 21.1641C39.1191 21.1641 39.2773 21.2344 39.3945 21.375C39.5234 21.5156 39.5879 21.6738 39.5879 21.8496C39.5879 21.9199 39.5645 22.0137 39.5176 22.1309ZM30.7109 15.0645C30.7109 15.8145 30.7285 16.5352 30.7637 17.2266C30.7988 17.918 30.8457 18.5801 30.9043 19.2129C31.3965 18.2637 31.8652 17.2559 32.3105 16.1895C32.7559 15.1113 33.1484 14.0273 33.4883 12.9375C33.8281 11.8359 34.0977 10.7461 34.2969 9.66797C34.5078 8.57812 34.6133 7.54102 34.6133 6.55664C34.6133 5.17383 34.502 4.18359 34.2793 3.58594C34.0566 2.98828 33.7578 2.68945 33.3828 2.68945C33.1367 2.68945 32.8965 2.85938 32.6621 3.19922C32.4395 3.53906 32.2285 4.00195 32.0293 4.58789C31.8301 5.17383 31.6484 5.86523 31.4844 6.66211C31.3203 7.45898 31.1797 8.31445 31.0625 9.22852C30.957 10.1426 30.8691 11.0977 30.7988 12.0938C30.7402 13.0898 30.7109 14.0801 30.7109 15.0645ZM48.3418 22.1309C48.2129 22.4004 48.0488 22.7227 47.8496 23.0977C47.6621 23.4609 47.4453 23.8418 47.1992 24.2402C46.9531 24.6387 46.6777 25.0371 46.373 25.4355C46.0684 25.8223 45.7344 26.1738 45.3711 26.4902C45.0195 26.7949 44.6387 27.041 44.2285 27.2285C43.8301 27.4277 43.4023 27.5273 42.9453 27.5273C42.2422 27.5273 41.6387 27.3105 41.1348 26.877C40.6309 26.4434 40.2031 25.875 39.8516 25.1719C39.5 24.4688 39.2129 23.6719 38.9902 22.7812C38.7793 21.8789 38.6152 20.9648 38.498 20.0391C38.3809 19.1016 38.2988 18.1934 38.252 17.3145C38.2168 16.4355 38.1992 15.6562 38.1992 14.9766C38.1992 13.9922 38.2285 12.9727 38.2871 11.918C38.3574 10.8633 38.4629 9.83203 38.6035 8.82422C38.7441 7.81641 38.9199 6.86133 39.1309 5.95898C39.3535 5.05664 39.6113 4.26563 39.9043 3.58594C40.209 2.90625 40.5547 2.36719 40.9414 1.96875C41.3281 1.57031 41.7676 1.37109 42.2598 1.37109C42.6465 1.37109 42.9922 1.46484 43.2969 1.65234C43.6133 1.82812 43.877 2.12109 44.0879 2.53125C44.2988 2.94141 44.4629 3.47461 44.5801 4.13086C44.6973 4.78711 44.7559 5.58984 44.7559 6.53906C44.7559 7.71094 44.6328 8.92383 44.3867 10.1777C44.1406 11.4199 43.8066 12.6738 43.3848 13.9395C42.9629 15.2051 42.4648 16.4707 41.8906 17.7363C41.3164 18.9902 40.7012 20.2148 40.0449 21.4102C40.3379 22.8984 40.7305 24.0703 41.2227 24.9258C41.7148 25.7695 42.3066 26.1914 42.998 26.1914C43.4668 26.1914 43.918 26.0098 44.3516 25.6465C44.7852 25.2715 45.1836 24.832 45.5469 24.3281C45.9102 23.8242 46.2266 23.3145 46.4961 22.7988C46.7773 22.2715 46.9941 21.8496 47.1465 21.5332C47.2051 21.416 47.2871 21.3281 47.3926 21.2695C47.498 21.1992 47.6152 21.1641 47.7441 21.1641C47.9434 21.1641 48.1016 21.2344 48.2188 21.375C48.3477 21.5156 48.4121 21.6738 48.4121 21.8496C48.4121 21.9199 48.3887 22.0137 48.3418 22.1309ZM39.5352 15.0645C39.5352 15.8145 39.5527 16.5352 39.5879 17.2266C39.623 17.918 39.6699 18.5801 39.7285 19.2129C40.2207 18.2637 40.6895 17.2559 41.1348 16.1895C41.5801 15.1113 41.9727 14.0273 42.3125 12.9375C42.6523 11.8359 42.9219 10.7461 43.1211 9.66797C43.332 8.57812 43.4375 7.54102 43.4375 6.55664C43.4375 5.17383 43.3262 4.18359 43.1035 3.58594C42.8809 2.98828 42.582 2.68945 42.207 2.68945C41.9609 2.68945 41.7207 2.85938 41.4863 3.19922C41.2637 3.53906 41.0527 4.00195 40.8535 4.58789C40.6543 5.17383 40.4727 5.86523 40.3086 6.66211C40.1445 7.45898 40.0039 8.31445 39.8867 9.22852C39.7812 10.1426 39.6934 11.0977 39.623 12.0938C39.5645 13.0898 39.5352 14.0801 39.5352 15.0645ZM49.2734 25.0664C49.5195 25.4062 49.8359 25.6816 50.2227 25.8926C50.6094 26.0918 51.084 26.1914 51.6465 26.1914C52.2207 26.1914 52.7422 26.0566 53.2109 25.7871C53.6797 25.5059 54.1074 25.1426 54.4941 24.6973C54.8809 24.252 55.2266 23.7539 55.5312 23.2031C55.8359 22.6523 56.1113 22.1016 56.3574 21.5508C56.416 21.4219 56.498 21.3281 56.6035 21.2695C56.709 21.1992 56.8262 21.1641 56.9551 21.1641C57.1543 21.1641 57.3125 21.2344 57.4297 21.375C57.5586 21.5156 57.623 21.668 57.623 21.832C57.623 21.8906 57.6172 21.9434 57.6055 21.9902C57.5938 22.0254 57.5762 22.0664 57.5527 22.1133C56.7441 23.8945 55.8594 25.2363 54.8984 26.1387C53.9492 27.041 52.8711 27.5039 51.6641 27.5273C50.8906 27.5273 50.2227 27.375 49.6602 27.0703C49.0977 26.7773 48.6348 26.3965 48.2715 25.9277C47.9082 25.4473 47.6387 24.9082 47.4629 24.3105C47.2871 23.7129 47.1992 23.1152 47.1992 22.5176C47.1992 21.9199 47.2695 21.3691 47.4102 20.8652C47.5625 20.3613 47.7734 19.9219 48.043 19.5469C48.3242 19.1719 48.6523 18.8789 49.0273 18.668C49.4141 18.457 49.8359 18.3516 50.293 18.3516C50.5625 18.3516 50.8262 18.4102 51.084 18.5273C51.3535 18.6328 51.5938 18.791 51.8047 19.002C52.0156 19.2012 52.1855 19.4473 52.3145 19.7402C52.4434 20.0332 52.5078 20.3672 52.5078 20.7422C52.5078 21.2227 52.4258 21.6738 52.2617 22.0957C52.0977 22.5176 51.8691 22.9102 51.5762 23.2734C51.2949 23.6367 50.9551 23.9707 50.5566 24.2754C50.1582 24.5801 49.7305 24.8438 49.2734 25.0664ZM48.7461 23.9238C49.1094 23.7715 49.4375 23.5781 49.7305 23.3438C50.0352 23.1094 50.293 22.8516 50.5039 22.5703C50.7148 22.2891 50.8789 21.9961 50.9961 21.6914C51.1133 21.375 51.1719 21.0586 51.1719 20.7422C51.1719 20.3906 51.084 20.127 50.9082 19.9512C50.7324 19.7637 50.5273 19.6699 50.293 19.6699C49.9766 19.6699 49.707 19.7578 49.4844 19.9336C49.2617 20.1094 49.0801 20.3379 48.9395 20.6191C48.7988 20.9004 48.6934 21.2168 48.623 21.5684C48.5645 21.9082 48.5352 22.248 48.5352 22.5879C48.5352 22.7988 48.5527 23.0215 48.5879 23.2559C48.6348 23.4902 48.6875 23.7129 48.7461 23.9238Z" fill="#2C3840"/>
</svg>
