<svg width="40" height="40" viewBox="0 0 40 40" fill="none" xmlns="http://www.w3.org/2000/svg">
<path d="M32.832 15H7.5C7.36739 15 7.24021 14.9473 7.14645 14.8536C7.05268 14.7598 7 14.6326 7 14.5C7 14.3674 7.05268 14.2402 7.14645 14.1464C7.24021 14.0527 7.36739 14 7.5 14H32.832C32.9646 14 33.0918 14.0527 33.1856 14.1464C33.2793 14.2402 33.332 14.3674 33.332 14.5C33.332 14.6326 33.2793 14.7598 33.1856 14.8536C33.0918 14.9473 32.9646 15 32.832 15Z" fill="#2C3840"/>
<path d="M32.832 26H7.5C7.36739 26 7.24021 25.9473 7.14645 25.8536C7.05268 25.7598 7 25.6326 7 25.5C7 25.3674 7.05268 25.2402 7.14645 25.1464C7.24021 25.0527 7.36739 25 7.5 25H32.832C32.9646 25 33.0918 25.0527 33.1856 25.1464C33.2793 25.2402 33.332 25.3674 33.332 25.5C33.332 25.6326 33.2793 25.7598 33.1856 25.8536C33.0918 25.9473 32.9646 26 32.832 26Z" fill="#2C3840"/>
</svg>
